tka_passive_flex_60_states
version=1
nRows=19
nColumns=27
inDegrees=yes

# SIMM Motion File Header:
name tka_passive_flex_60_states
datacolumns 27
datarows 19
otherdata 1
range 2.55040551 2.61188084
endheader
time	ground_r1	ground_r2	ground_r3	ground_tx	ground_ty	ground_tz	knee_flex_r	knee_add_r	knee_rot_r	knee_tx_r	knee_ty_r	knee_tz_r	knee_angle_r_beta	ground_r1_u	ground_r2_u	ground_r3_u	ground_tx_u	ground_ty_u	ground_tz_u	knee_flex_r_u	knee_add_r_u	knee_rot_r_u	knee_tx_r_u	knee_ty_r_u	knee_tz_r_u	knee_angle_r_beta_u
      2.55040551	      0.00000000	     -0.00000000	      0.00000000	     -0.00000000	      0.96900000	     -0.00000000	     42.32792991	     -0.07360662	      3.26363855	      0.00256403	      0.01287629	     -0.00704916	     42.32792991	      0.00000000	     -0.00000000	     -0.00000000	      0.00000000	     -0.00000000	      0.00000000	    -58.49560978	     -1.90932994	     -5.44857276	     -0.00945968	     -0.00530860	      0.00746862	    -58.49560978
      2.55401351	      0.00000000	     -0.00000000	      0.00000000	     -0.00000000	      0.96900000	     -0.00000000	     42.11572115	     -0.08049663	      3.24394040	      0.00253024	      0.01285683	     -0.00702217	     42.11572115	      0.00000000	     -0.00000000	     -0.00000000	      0.00000000	     -0.00000000	      0.00000000	    -59.13187011	     -1.86723489	     -5.49141965	     -0.00927936	     -0.00548590	      0.00766320	    -59.13187011
      2.55762151	      0.00000000	     -0.00000000	      0.00000000	     -0.00000000	      0.96900000	     -0.00000000	     41.90126886	     -0.08692713	      3.22395073	      0.00249683	      0.01283659	     -0.00699322	     41.90126886	      0.00000000	     -0.00000000	     -0.00000000	      0.00000000	     -0.00000000	      0.00000000	    -59.73925342	     -1.69846774	     -5.58907653	     -0.00927818	     -0.00574237	      0.00837871	    -59.73925342
      2.56122951	      0.00000000	     -0.00000000	      0.00000000	     -0.00000000	      0.96900000	     -0.00000000	     41.68467722	     -0.09281940	      3.20375032	      0.00246303	      0.01281543	     -0.00696201	     41.68467722	      0.00000000	     -0.00000000	     -0.00000000	      0.00000000	     -0.00000000	      0.00000000	    -60.31775971	     -1.57250883	     -5.58351737	     -0.00948406	     -0.00595305	      0.00889247	    -60.31775971
      2.56549205	      0.00000000	     -0.00000000	      0.00000000	     -0.00000000	      0.96900000	     -0.00000000	     41.42617870	     -0.09923625	      3.18017247	      0.00242179	      0.01279004	     -0.00692308	     41.42617870	      0.00000000	     -0.00000000	     -0.00000000	      0.00000000	     -0.00000000	      0.00000000	    -60.96400439	     -1.41948993	     -5.50417968	     -0.00986919	     -0.00593695	      0.00944110	    -60.96400439
      2.56860154	      0.00000000	     -0.00000000	      0.00000000	     -0.00000000	      0.96900000	     -0.00000000	     41.23591332	     -0.10338431	      3.16306370	      0.00239070	      0.01277179	     -0.00689278	     41.23591332	      0.00000000	     -0.00000000	     -0.00000000	      0.00000000	     -0.00000000	      0.00000000	    -61.41000830	     -1.23447850	     -5.49873363	     -0.01014816	     -0.00579295	      0.01010020	    -61.41000830
      2.57171102	      0.00000000	     -0.00000000	      0.00000000	     -0.00000000	      0.96900000	     -0.00000000	     41.04429446	     -0.10690990	      3.14592757	      0.00235854	      0.01275394	     -0.00686023	     41.04429446	      0.00000000	     -0.00000000	     -0.00000000	      0.00000000	     -0.00000000	      0.00000000	    -61.83456382	     -1.06373812	     -5.51204027	     -0.01056128	     -0.00569795	      0.01071332	    -61.83456382
      2.57482050	      0.00000000	     -0.00000000	      0.00000000	     -0.00000000	      0.96900000	     -0.00000000	     40.85138879	     -0.11018019	      3.12880644	      0.00232491	      0.01273631	     -0.00682692	     40.85138879	      0.00000000	     -0.00000000	     -0.00000000	      0.00000000	     -0.00000000	      0.00000000	    -62.23767095	     -1.06270226	     -5.49197085	     -0.01106738	     -0.00562524	      0.01060921	    -62.23767095
      2.57869518	      0.00000000	     -0.00000000	      0.00000000	     -0.00000000	      0.96900000	     -0.00000000	     40.60931196	     -0.11435609	      3.10747915	      0.00228126	      0.01271514	     -0.00678652	     40.60931196	      0.00000000	     -0.00000000	     -0.00000000	      0.00000000	     -0.00000000	      0.00000000	    -62.70996209	     -1.08317353	     -5.51067298	     -0.01141787	     -0.00523564	      0.01025809	    -62.70996209
      2.58256986	      0.00000000	     -0.00000000	      0.00000000	     -0.00000000	      0.96900000	     -0.00000000	     40.36546966	     -0.11869244	      3.08642618	      0.00223625	      0.01269614	     -0.00674804	     40.36546966	      0.00000000	     -0.00000000	     -0.00000000	      0.00000000	     -0.00000000	      0.00000000	    -63.14894966	     -1.18611299	     -5.35922682	     -0.01187895	     -0.00459599	      0.00947343	    -63.14894966
      2.58476021	      0.00000000	     -0.00000000	      0.00000000	     -0.00000000	      0.96900000	     -0.00000000	     40.22689347	     -0.12141399	      3.07475199	      0.00220980	      0.01268636	     -0.00672803	     40.22689347	      0.00000000	     -0.00000000	     -0.00000000	      0.00000000	     -0.00000000	      0.00000000	    -63.38237455	     -1.28361396	     -5.31529792	     -0.01227964	     -0.00434894	      0.00885957	    -63.38237455
      2.58645942	      0.00000000	     -0.00000000	      0.00000000	     -0.00000000	      0.96900000	     -0.00000000	     40.11904516	     -0.12356465	      3.06568113	      0.00218866	      0.01267909	     -0.00671299	     40.11904516	      0.00000000	     -0.00000000	     -0.00000000	      0.00000000	     -0.00000000	      0.00000000	    -63.55612756	     -1.22778842	     -5.37154240	     -0.01260767	     -0.00420609	      0.00892828	    -63.55612756
      2.58815863	      0.00000000	     -0.00000000	      0.00000000	     -0.00000000	      0.96900000	     -0.00000000	     40.01090705	     -0.12554113	      3.05648676	      0.00216699	      0.01267210	     -0.00669751	     40.01090705	      0.00000000	     -0.00000000	     -0.00000000	      0.00000000	     -0.00000000	      0.00000000	    -63.72347569	     -1.09459232	     -5.45231085	     -0.01288823	     -0.00402173	      0.00930372	    -63.72347569
      2.59091519	      0.00000000	     -0.00000000	      0.00000000	     -0.00000000	      0.96900000	     -0.00000000	     39.83489023	     -0.12824366	      3.04124102	      0.00213096	      0.01266147	     -0.00667098	     39.83489023	      0.00000000	     -0.00000000	     -0.00000000	      0.00000000	     -0.00000000	      0.00000000	    -63.98133503	     -0.86325521	     -5.60937283	     -0.01324378	     -0.00369560	      0.00995717	    -63.98133503
      2.59440005	      0.00000000	     -0.00000000	      0.00000000	     -0.00000000	      0.96900000	     -0.00000000	     39.61139025	     -0.13082286	      3.02148766	      0.00208376	      0.01264910	     -0.00663511	     39.61139025	      0.00000000	     -0.00000000	     -0.00000000	      0.00000000	     -0.00000000	      0.00000000	    -64.28319825	     -0.64017677	     -5.70331849	     -0.01390354	     -0.00344621	      0.01054512	    -64.28319825
      2.59892493	      0.00000000	     -0.00000000	      0.00000000	     -0.00000000	      0.96900000	     -0.00000000	     39.31970348	     -0.13332200	      2.99541434	      0.00201878	      0.01263386	     -0.00658667	     39.31970348	      0.00000000	     -0.00000000	     -0.00000000	      0.00000000	     -0.00000000	      0.00000000	    -64.63495020	     -0.45246532	     -5.85722891	     -0.01471199	     -0.00323931	      0.01089337	    -64.63495020
      2.60294855	      0.00000000	     -0.00000000	      0.00000000	     -0.00000000	      0.96900000	     -0.00000000	     39.05907223	     -0.13471518	      2.97143571	      0.00195899	      0.01262157	     -0.00654198	     39.05907223	      0.00000000	     -0.00000000	     -0.00000000	      0.00000000	     -0.00000000	      0.00000000	    -64.90958556	     -0.26092392	     -6.06094326	     -0.01499937	     -0.00289748	      0.01123969	    -64.90958556
      2.60697218	      0.00000000	     -0.00000000	      0.00000000	     -0.00000000	      0.96900000	     -0.00000000	     38.79740821	     -0.13580041	      2.94687849	      0.00189784	      0.01261016	     -0.00649772	     38.79740821	      0.00000000	     -0.00000000	     -0.00000000	      0.00000000	     -0.00000000	      0.00000000	    -65.14830777	     -0.30399840	     -6.16379019	     -0.01539729	     -0.00283650	      0.01065954	    -65.14830777
      2.61188084	      0.00000000	     -0.00000000	      0.00000000	     -0.00000000	      0.96900000	     -0.00000000	     38.47699994	     -0.13754236	      2.91606086	      0.00182181	      0.01259618	     -0.00644776	     38.47699994	      0.00000000	     -0.00000000	     -0.00000000	      0.00000000	     -0.00000000	      0.00000000	    -65.39090828	     -0.43223314	     -6.38410611	     -0.01551969	     -0.00283768	      0.00956199	    -65.39090828
